<svg width="295" height="107" viewBox="0 0 295 107" fill="none" xmlns="http://www.w3.org/2000/svg">
<path fill-rule="evenodd" clip-rule="evenodd" d="M0 56.6058C0 54.7988 1.46489 53.3339 3.27187 53.3339H57.8031C59.6101 53.3339 61.0749 54.7988 61.0749 56.6058V64.1311C61.0749 65.9381 59.6101 67.403 57.8031 67.403H43.0595C42.6726 67.403 42.297 67.4464 41.937 67.5285L41.9345 67.5121H28.6834L38.0629 71.9512C38.0285 72.3239 38.0355 72.7071 38.0884 73.0958L41.0567 94.9243C41.9249 101.309 36.9617 106.993 30.5185 106.993C24.0696 106.993 19.1047 101.299 19.9823 94.9101L22.9778 73.1026C23.3918 70.0887 21.0497 67.403 18.0076 67.403H3.27187C1.46489 67.403 0 65.9381 0 64.1311V56.6058ZM30.5375 100.667C33.0071 100.667 35.009 98.665 35.009 96.1955C35.009 93.7259 33.0071 91.7239 30.5375 91.7239C28.0678 91.7239 26.0659 93.7259 26.0659 96.1955C26.0659 98.665 28.0678 100.667 30.5375 100.667Z" fill="#272727"/>
<path d="M0 22.0715C0 20.2426 0.916806 18.5356 2.44134 17.5255L27.5257 0.907124C29.3514 -0.302361 31.7235 -0.302388 33.5493 0.907124L39.5897 4.90888V10.3089L41.7709 15.9801V4.14686C41.7709 2.64102 42.9917 1.4203 44.4975 1.4203H51.0412C52.547 1.4203 53.7678 2.64102 53.7678 4.14686V14.3019L58.6336 17.5255C60.1581 18.5356 61.0749 20.2426 61.0749 22.0715V41.3371C61.0749 44.3488 58.6334 46.7903 55.6218 46.7903H5.45312C2.44155 46.7903 0 44.3488 0 41.3371V22.0715Z" fill="url(#paint0_linear_146_388)"/>
<path d="M97.3458 6.98608C84.4809 6.98608 79.5859 11.5045 79.5859 23.5536V34.3476C79.5859 46.3966 84.4809 50.915 97.3458 50.915H125.711C126.778 50.915 127.343 50.3502 127.343 49.2834V41.941C127.343 40.8741 126.778 40.3093 125.711 40.3093H97.7851C92.3253 40.3093 91.0075 38.866 91.0075 33.2179V24.6832C91.0075 19.0352 92.3253 17.5918 97.7851 17.5918H125.711C126.778 17.5918 127.343 17.027 127.343 15.9601V8.61773C127.343 7.55089 126.778 6.98608 125.711 6.98608H97.3458Z" fill="#272727"/>
<path d="M135.466 6.98608C134.4 6.98608 133.835 7.55089 133.835 8.61773V43.3844C133.835 49.3462 135.968 50.915 140.299 50.915H146.7C151.908 50.915 153.226 50.162 155.109 46.5849L169.794 18.2821C169.919 17.9683 170.233 17.8428 170.547 17.8428H171.049C171.363 17.8428 171.488 18.0311 171.488 18.4704V49.2834C171.488 50.413 172.053 50.915 173.12 50.915H181.278C182.345 50.915 182.91 50.413 182.91 49.2834V14.5168C182.91 8.61773 180.839 6.98608 176.509 6.98608H169.919C164.711 6.98608 163.393 7.73915 161.573 11.3162L146.951 39.619C146.825 39.9328 146.574 40.0583 146.198 40.0583H145.696C145.382 40.0583 145.256 39.87 145.256 39.4308V8.61773C145.256 7.55089 144.691 6.98608 143.625 6.98608H135.466Z" fill="#272727"/>
<path d="M189.885 6.98608C188.756 6.98608 188.254 7.55089 188.254 8.61773V15.9601C188.254 17.027 188.756 17.5918 189.885 17.5918H208.712V49.2834C208.712 50.3502 209.277 50.915 210.406 50.915H218.502C219.569 50.915 220.134 50.3502 220.134 49.2834V17.5918H239.023C240.09 17.5918 240.655 17.027 240.655 15.9601V8.61773C240.655 7.55089 240.09 6.98608 239.023 6.98608H189.885Z" fill="#272727"/>
<path d="M247.556 6.98608C246.49 6.98608 245.925 7.55089 245.925 8.61773V43.3844C245.925 49.3462 248.058 50.915 252.389 50.915H258.79C263.998 50.915 265.316 50.162 267.199 46.5849L281.884 18.2821C282.009 17.9683 282.323 17.8428 282.637 17.8428H283.139C283.453 17.8428 283.578 18.0311 283.578 18.4704V49.2834C283.578 50.413 284.143 50.915 285.21 50.915H293.368C294.435 50.915 295 50.413 295 49.2834V14.5168C295 8.61773 292.929 6.98608 288.599 6.98608H282.009C276.8 6.98608 275.483 7.73915 273.663 11.3162L259.041 39.619C258.915 39.9328 258.664 40.0583 258.288 40.0583H257.786C257.472 40.0583 257.346 39.87 257.346 39.4308V8.61773C257.346 7.55089 256.781 6.98608 255.715 6.98608H247.556Z" fill="#272727"/>
<path d="M86.3008 58.6904C81.7824 58.6904 80.0252 60.4476 80.0252 64.4012V100.988C80.0252 102.055 80.59 102.619 81.6569 102.619H89.8151C90.9447 102.619 91.5095 102.055 91.5095 100.988V70.363C91.5095 69.6099 91.8233 69.2961 92.5764 69.2961H116.612C117.365 69.2961 117.679 69.6099 117.679 70.363V100.988C117.679 102.055 118.243 102.619 119.373 102.619H127.531C128.598 102.619 129.163 102.055 129.163 100.988V64.4012C129.163 60.4476 127.406 58.6904 122.887 58.6904H86.3008Z" fill="#272727"/>
<path d="M139.088 58.6904C137.833 58.6904 137.205 59.318 137.205 60.5731V100.988C137.205 102.055 137.77 102.619 138.837 102.619H146.995C148.062 102.619 148.627 102.055 148.627 100.988V89.7545H173.039C182.892 89.7545 186.782 85.2361 186.782 76.7641V71.6809C186.782 63.2088 182.892 58.6904 173.039 58.6904H139.088ZM148.627 69.6727C148.627 69.1706 148.878 68.9196 149.38 68.9196H170.78C174.231 68.9196 175.361 70.3002 175.361 73.2497V75.5717C175.361 78.584 174.231 79.9646 170.78 79.9646H148.627V69.6727Z" fill="#272727"/>
<path d="M209.926 58.6904C197.061 58.6904 192.166 63.2088 192.166 75.2579V86.0519C192.166 98.101 197.061 102.619 209.926 102.619H229.506C242.371 102.619 247.266 98.101 247.266 86.0519V75.2579C247.266 63.2088 242.371 58.6904 229.506 58.6904H209.926ZM203.588 76.1365C203.588 70.4257 204.906 69.0451 210.365 69.0451H229.066C234.526 69.0451 235.844 70.4257 235.844 76.1365V85.1733C235.844 90.8841 234.526 92.3275 229.066 92.3275H210.365C204.906 92.3275 203.588 90.8841 203.588 85.1733V76.1365Z" fill="#272727"/>
<defs>
<linearGradient id="paint0_linear_146_388" x1="2.1933" y1="45.7218" x2="52.9766" y2="1.85586" gradientUnits="userSpaceOnUse">
<stop stop-color="#A1FF95"/>
<stop offset="1" stop-color="#00A3FF"/>
</linearGradient>
</defs>
</svg>
