<svg width="74" height="33" viewBox="0 0 74 33" fill="none" xmlns="http://www.w3.org/2000/svg">
<path d="M6.99883 0.368164C2.63782 0.368164 0.978516 1.89983 0.978516 5.98429V9.64327C0.978516 13.7277 2.63782 15.2594 6.99883 15.2594H16.6143C16.976 15.2594 17.1674 15.0679 17.1674 14.7063V12.2173C17.1674 11.8557 16.976 11.6642 16.6143 11.6642H7.14774C5.29697 11.6642 4.85024 11.1749 4.85024 9.26036V6.3672C4.85024 4.45262 5.29697 3.96333 7.14774 3.96333H16.6143C16.976 3.96333 17.1674 3.77187 17.1674 3.41023V0.921267C17.1674 0.559623 16.976 0.368164 16.6143 0.368164H6.99883Z" fill="#272727"/>
<path d="M19.9211 0.368164C19.5595 0.368164 19.368 0.559623 19.368 0.921267V12.7066C19.368 14.7276 20.0913 15.2594 21.5592 15.2594H23.729C25.4947 15.2594 25.9414 15.0041 26.5796 13.7915L31.5576 4.19734C31.6001 4.09097 31.7065 4.04843 31.8128 4.04843H31.983C32.0894 4.04843 32.1319 4.11224 32.1319 4.26116V14.7063C32.1319 15.0892 32.3234 15.2594 32.685 15.2594H35.4506C35.8122 15.2594 36.0037 15.0892 36.0037 14.7063V2.92095C36.0037 0.921267 35.3016 0.368164 33.8338 0.368164H31.6001C29.8344 0.368164 29.3877 0.623443 28.7708 1.83601L23.8141 11.4302C23.7716 11.5366 23.6865 11.5791 23.5588 11.5791H23.3887C23.2823 11.5791 23.2397 11.5153 23.2397 11.3664V0.921267C23.2397 0.559623 23.0483 0.368164 22.6866 0.368164H19.9211Z" fill="#272727"/>
<path d="M38.3683 0.368164C37.9854 0.368164 37.8152 0.559623 37.8152 0.921267V3.41023C37.8152 3.77187 37.9854 3.96333 38.3683 3.96333H44.7503V14.7063C44.7503 15.0679 44.9417 15.2594 45.3246 15.2594H48.0689C48.4305 15.2594 48.622 15.0679 48.622 14.7063V3.96333H55.0252C55.3869 3.96333 55.5783 3.77187 55.5783 3.41023V0.921267C55.5783 0.559623 55.3869 0.368164 55.0252 0.368164H38.3683Z" fill="#272727"/>
<path d="M57.9179 0.368164C57.5562 0.368164 57.3648 0.559623 57.3648 0.921267V12.7066C57.3648 14.7276 58.088 15.2594 59.5559 15.2594H61.7258C63.4914 15.2594 63.9382 15.0041 64.5764 13.7915L69.5543 4.19734C69.5968 4.09097 69.7032 4.04843 69.8096 4.04843H69.9798C70.0861 4.04843 70.1287 4.11224 70.1287 4.26116V14.7063C70.1287 15.0892 70.3201 15.2594 70.6818 15.2594H73.4473C73.8089 15.2594 74.0004 15.0892 74.0004 14.7063V2.92095C74.0004 0.921267 73.2984 0.368164 71.8305 0.368164H69.5968C67.8312 0.368164 67.3844 0.623443 66.7675 1.83601L61.8109 11.4302C61.7683 11.5366 61.6832 11.5791 61.5556 11.5791H61.3854C61.279 11.5791 61.2365 11.5153 61.2365 11.3664V0.921267C61.2365 0.559623 61.045 0.368164 60.6834 0.368164H57.9179Z" fill="#272727"/>
<path d="M3.25475 17.8951C1.72308 17.8951 1.12743 18.4908 1.12743 19.831V32.2333C1.12743 32.5949 1.31889 32.7864 1.68053 32.7864H4.44605C4.82896 32.7864 5.02042 32.5949 5.02042 32.2333V21.8519C5.02042 21.5967 5.12679 21.4903 5.38207 21.4903H13.5297C13.785 21.4903 13.8913 21.5967 13.8913 21.8519V32.2333C13.8913 32.5949 14.0828 32.7864 14.4657 32.7864H17.2312C17.5929 32.7864 17.7843 32.5949 17.7843 32.2333V19.831C17.7843 18.4908 17.1887 17.8951 15.657 17.8951H3.25475Z" fill="#272727"/>
<path d="M21.1488 17.8951C20.7234 17.8951 20.5106 18.1079 20.5106 18.5333V32.2333C20.5106 32.5949 20.7021 32.7864 21.0637 32.7864H23.8292C24.1909 32.7864 24.3823 32.5949 24.3823 32.2333V28.4254H32.6576C35.9975 28.4254 37.3164 26.8937 37.3164 24.0218V22.2987C37.3164 19.4268 35.9975 17.8951 32.6576 17.8951H21.1488ZM24.3823 21.6179C24.3823 21.4478 24.4674 21.3627 24.6376 21.3627H31.8918C33.0618 21.3627 33.4447 21.8307 33.4447 22.8305V23.6176C33.4447 24.6387 33.0618 25.1067 31.8918 25.1067H24.3823V21.6179Z" fill="#272727"/>
<path d="M45.1618 17.8951C40.8008 17.8951 39.1414 19.4268 39.1414 23.5112V27.1702C39.1414 31.2547 40.8008 32.7864 45.1618 32.7864H51.799C56.16 32.7864 57.8193 31.2547 57.8193 27.1702V23.5112C57.8193 19.4268 56.16 17.8951 51.799 17.8951H45.1618ZM43.0132 23.8091C43.0132 21.8732 43.4599 21.4052 45.3107 21.4052H51.6501C53.5008 21.4052 53.9476 21.8732 53.9476 23.8091V26.8724C53.9476 28.8083 53.5008 29.2976 51.6501 29.2976H45.3107C43.4599 29.2976 43.0132 28.8083 43.0132 26.8724V23.8091Z" fill="#272727"/>
</svg>
