<svg width="21" height="37" viewBox="0 0 21 37" fill="none" xmlns="http://www.w3.org/2000/svg">
<path fill-rule="evenodd" clip-rule="evenodd" d="M0 19.1885C0 18.5759 0.496574 18.0794 1.10911 18.0794H19.5943C20.2069 18.0794 20.7035 18.5759 20.7035 19.1885V21.7394C20.7035 22.352 20.2069 22.8486 19.5943 22.8486H14.5965C14.4653 22.8486 14.338 22.8633 14.216 22.8911L14.2151 22.8855H9.72323L12.9027 24.3903C12.8911 24.5167 12.8934 24.6466 12.9114 24.7783L13.9176 32.1778C14.2119 34.3421 12.5294 36.2688 10.3453 36.2688C8.15921 36.2688 6.47618 34.3388 6.77368 32.173L7.78911 24.7806C7.92945 23.759 7.13553 22.8486 6.10429 22.8486H1.10911C0.496574 22.8486 0 22.352 0 21.7394V19.1885ZM10.3517 34.1245C11.1889 34.1245 11.8675 33.4459 11.8675 32.6088C11.8675 31.7716 11.1889 31.093 10.3517 31.093C9.51455 31.093 8.83594 31.7716 8.83594 32.6088C8.83594 33.4459 9.51455 34.1245 10.3517 34.1245Z" fill="#272727"/>
<path d="M0 7.4819C0 6.86194 0.310783 6.28327 0.827575 5.94087L9.33078 0.307501C9.94967 -0.102496 10.7538 -0.102505 11.3727 0.307501L13.4203 1.66403V3.49455L14.1597 5.41701V1.40572C14.1597 0.895264 14.5735 0.481459 15.0839 0.481459H17.3022C17.8126 0.481459 18.2264 0.895264 18.2264 1.40572V4.84811L19.8759 5.94087C20.3927 6.28326 20.7035 6.86194 20.7035 7.4819V14.0126C20.7035 15.0336 19.8758 15.8612 18.8549 15.8612H1.84852C0.827647 15.8612 0 15.0336 0 14.0126V7.4819Z" fill="url(#paint0_linear_169_713)"/>
<defs>
<linearGradient id="paint0_linear_169_713" x1="0.743495" y1="15.499" x2="17.9582" y2="0.629107" gradientUnits="userSpaceOnUse">
<stop stop-color="#A1FF95"/>
<stop offset="1" stop-color="#00A3FF"/>
</linearGradient>
</defs>
</svg>
